<svg xmlns="http://www.w3.org/2000/svg" width="11.588" height="24.944" viewBox="0 0 11.588 24.944">
  <g id="Group_956" data-name="Group 956" transform="translate(-392.472 -213.881)">
    <path id="Path_982" data-name="Path 982" d="M395.025,226.451v12.059a.314.314,0,0,0,.314.314h4.478a.314.314,0,0,0,.314-.314V226.255h3.247a.314.314,0,0,0,.313-.287l.313-3.693a.315.315,0,0,0-.313-.341h-3.559v-2.62a1.112,1.112,0,0,1,1.112-1.112h2.5a.314.314,0,0,0,.314-.314V214.2a.314.314,0,0,0-.314-.314h-4.228a4.492,4.492,0,0,0-4.493,4.493v3.56h-2.239a.314.314,0,0,0-.314.314v3.693a.314.314,0,0,0,.314.314h2.239Z" transform="translate(0 0)" fill="gray" fill-rule="evenodd"/>
  </g>
</svg>
