<svg xmlns="http://www.w3.org/2000/svg" width="24.945" height="24.945" viewBox="0 0 24.945 24.945">
  <path id="Path_985" data-name="Path 985" d="M484.14,218.053a1.467,1.467,0,1,0,1.467,1.467A1.467,1.467,0,0,0,484.14,218.053Zm-6.52,1.881a6.16,6.16,0,1,0,6.161,6.161A6.167,6.167,0,0,0,477.62,219.934Zm0,10.107a3.946,3.946,0,1,1,3.946-3.946A3.951,3.951,0,0,1,477.62,230.04Zm12.43-9.066a7.514,7.514,0,0,0-7.514-7.514H472.62a7.514,7.514,0,0,0-7.514,7.514v9.917a7.514,7.514,0,0,0,7.514,7.514h9.917a7.514,7.514,0,0,0,7.514-7.514Zm-2.353,9.917a5.16,5.16,0,0,1-5.161,5.16H472.62a5.16,5.16,0,0,1-5.16-5.16v-9.917a5.16,5.16,0,0,1,5.16-5.16h9.917a5.16,5.16,0,0,1,5.161,5.16Z" transform="translate(-465.106 -213.461)" fill="gray"/>
</svg>
