<svg xmlns="http://www.w3.org/2000/svg" width="22.977" height="21.944" viewBox="0 0 22.977 21.944">
  <g id="Group_968" data-name="Group 968" transform="translate(-473.451 -2515.837)">
    <g id="Group_964" data-name="Group 964" transform="translate(473.772 2522.638)">
      <path id="Path_987" data-name="Path 987" d="M409.782,295.733v8.121a.363.363,0,0,1-.363.363h-4.193a.363.363,0,0,1-.364-.363V296.3c0-1.988-.71-3.345-2.492-3.345a2.69,2.69,0,0,0-2.523,1.8,3.353,3.353,0,0,0-.163,1.2v7.9a.364.364,0,0,1-.364.363h-4.191a.362.362,0,0,1-.363-.363c.01-2.012.052-11.771.009-14.065a.362.362,0,0,1,.363-.368h4.183a.364.364,0,0,1,.363.364v1.733c-.01.017-.024.033-.033.049h.033v-.049a4.886,4.886,0,0,1,4.434-2.444c3.236,0,5.663,2.115,5.663,6.659Zm-22.292,8.485h4.192a.363.363,0,0,0,.363-.363V289.785a.364.364,0,0,0-.363-.364h-4.192a.364.364,0,0,0-.363.364v14.069A.363.363,0,0,0,387.489,304.217Z" transform="translate(-387.126 -289.074)" fill="gray"/>
    </g>
    <g id="Group_967" data-name="Group 967" transform="translate(473.451 2515.837)">
      <circle id="Ellipse_49" data-name="Ellipse 49" cx="2.633" cy="2.633" r="2.633" transform="translate(0 0)" fill="gray"/>
    </g>
  </g>
</svg>
