<svg xmlns="http://www.w3.org/2000/svg" width="26.642" height="21.944" viewBox="0 0 26.642 21.944">
  <g id="Group_948" data-name="Group 948" transform="translate(-302.559 -217.139)">
    <path id="Path_976" data-name="Path 976" d="M329.1,219.769a10.918,10.918,0,0,1-2.691.769c.434-.073,1.073-.858,1.328-1.175a4.959,4.959,0,0,0,.9-1.631c.023-.047.041-.106-.006-.141a.152.152,0,0,0-.142.012,13.73,13.73,0,0,1-3.2,1.224.213.213,0,0,1-.22-.059,2.583,2.583,0,0,0-.28-.286,5.658,5.658,0,0,0-1.549-.949,5.392,5.392,0,0,0-2.375-.383,5.676,5.676,0,0,0-2.253.637,5.805,5.805,0,0,0-1.817,1.485,5.589,5.589,0,0,0-1.086,2.174,5.884,5.884,0,0,0-.057,2.3c.017.128.006.146-.111.128-4.391-.653-8.03-2.224-10.985-5.591-.128-.146-.2-.146-.3.012-1.292,1.938-.665,5.051.95,6.581.215.2.436.408.675.594a5.58,5.58,0,0,1-2.12-.594c-.128-.081-.193-.034-.2.111a3.322,3.322,0,0,0,.034.63,5.633,5.633,0,0,0,3.471,4.49,3.261,3.261,0,0,0,.7.215,6.273,6.273,0,0,1-2.079.064c-.152-.029-.209.047-.152.193a5.847,5.847,0,0,0,4.368,3.657c.2.034.4.034.595.081-.013.018-.024.018-.035.035-.491.748-2.192,1.3-2.983,1.581a10.687,10.687,0,0,1-4.531.58c-.244-.036-.295-.034-.361,0s-.008.1.07.162c.309.2.623.385.943.559a14.99,14.99,0,0,0,3.028,1.212c5.443,1.5,11.573.4,15.66-3.662,3.208-3.189,4.333-7.586,4.333-11.988,0-.173.2-.268.325-.358a10.552,10.552,0,0,0,2.121-2.217.645.645,0,0,0,.131-.425v-.023C329.2,219.7,329.209,219.72,329.1,219.769Z" fill="gray"/>
  </g>
</svg>
