<svg xmlns="http://www.w3.org/2000/svg" width="27.062" height="18.944" viewBox="0 0 27.062 18.944">
  <g id="Group_960" data-name="Group 960" transform="translate(-466.151 -154.863)">
    <g id="Group_959" data-name="Group 959" transform="translate(466.151 154.863)">
      <path id="Path_984" data-name="Path 984" d="M493.213,160.754a5.891,5.891,0,0,0-5.891-5.891h-15.28a5.891,5.891,0,0,0-5.89,5.891v7.161a5.891,5.891,0,0,0,5.89,5.891h15.28a5.891,5.891,0,0,0,5.891-5.891Zm-9.64,3.941-6.094,3.342c-.265.144-.5-.048-.5-.35v-6.86c0-.305.246-.5.511-.345L483.622,164A.4.4,0,0,1,483.573,164.7Z" transform="translate(-466.151 -154.863)" fill="gray"/>
    </g>
  </g>
</svg>
